# xmcd
#
# Track frame offsets:
#   150
#   18998
#   37940
#   59466
#   79685
#   94066
#   113574
#   134154
#   150304
#   165567
#   183038
#   200597
#   219359
#   237978
#   261350
#   281052
#   298511
#   320074
#   339331
#
# Disc length: 4793 seconds
#
# Revision: 0
# Processed by: cddbd v1.4PL0 Copyright (c) Steve Scherf et al.
# Submitted via: uFREEDB ActiveX Control 1.5
#
DISCID=0c12b713
DTITLE=Lentas - Internacionais
DYEAR=1900
DGENRE=Country
TTITLE0=Lara Fabian - Love By Grace
TTITLE1=Alannis Morissette - That I Would Be Good 
TTITLE2=Celine Dion - My Heart Will Go On
TTITLE3=San
TTITLE4=Lionel Riche - Stuck On You
TTITLE5=Brian Mcnight e Ivete Sangalo - Back At One
TTITLE6=Whitney Houston - Will Always Love You
TTITLE7=Shania Twain You1re Stil the One
TTITLE8=Tim Moore - Yes
TTITLE9=Toto - I'll Be Over You
TTITLE10=Backstreet Boys - Shape Of Heart
TTITLE11=Bandy - Everything I Do
TTITLE12=Chistina Aguilera - I Turn To You
TTITLE13=Bon Jovi - Thank You For Loving Me
TTITLE14=Roxette
TTITLE15=Alan Jackson - I'll Try
TTITLE16=Rpm - London London
TTITLE17=Tina Tuner - We Don't Need Another Hero
TTITLE18=The Romantics - Tslking In You Sleep
EXTD=
EXTT0=
EXTT1=
EXTT2=
EXTT3=
EXTT4=
EXTT5=
EXTT6=
EXTT7=
EXTT8=
EXTT9=
EXTT10=
EXTT11=
EXTT12=
EXTT13=
EXTT14=
EXTT15=
EXTT16=
EXTT17=
EXTT18=
PLAYORDER=
